<svg width="128" height="128" viewBox="0 0 128 128" xmlns="http://www.w3.org/2000/svg">
  <defs>
    <linearGradient id="g102a" x1="50%" y1="0%" x2="50%" y2="100%">
      <stop offset="0%" stop-color="#3b82f6" />
      <stop offset="100%" stop-color="#6366f1" />
    </linearGradient>
    <linearGradient id="g102b" x1="50%" y1="0%" x2="50%" y2="100%">
      <stop offset="0%" stop-color="#6366f1" />
      <stop offset="100%" stop-color="#8b5cf6" />
    </linearGradient>
    <linearGradient id="g102c" x1="50%" y1="0%" x2="50%" y2="100%">
      <stop offset="0%" stop-color="#8b5cf6" />
      <stop offset="100%" stop-color="#ec4899" />
    </linearGradient>
  </defs>
  <rect x="4" y="4" width="120" height="120" rx="28" fill="#0f172a" />
  <!-- Layers with visible side walls - 3D box/database feel -->
  <!-- Layer 3 (bottom) -->
  <polygon points="64,64 104,84 64,94 24,84" fill="url(#g102c)" opacity="0.65" />
  <polygon points="24,84 64,94 64,104 24,94" fill="#8b5cf6" opacity="0.4" />
  <polygon points="104,84 64,94 64,104 104,94" fill="#ec4899" opacity="0.3" />
  <!-- Layer 2 (middle) -->
  <polygon points="64,40 104,60 64,70 24,60" fill="url(#g102b)" opacity="0.8" />
  <polygon points="24,60 64,70 64,80 24,70" fill="#6366f1" opacity="0.4" />
  <polygon points="104,60 64,70 64,80 104,70" fill="#8b5cf6" opacity="0.3" />
  <!-- Layer 1 (top) -->
  <polygon points="64,16 104,36 64,46 24,36" fill="url(#g102a)" />
  <polygon points="24,36 64,46 64,56 24,46" fill="#3b82f6" opacity="0.5" />
  <polygon points="104,36 64,46 64,56 104,46" fill="#6366f1" opacity="0.4" />
  <!-- Top highlight -->
  <polygon points="64,16 104,36 64,46" fill="white" opacity="0.08" />
</svg>
