<svg width="128" height="128" viewBox="0 0 128 128" xmlns="http://www.w3.org/2000/svg">
  <defs>
    <linearGradient id="g109a" x1="50%" y1="0%" x2="50%" y2="100%">
      <stop offset="0%" stop-color="#3b82f6" />
      <stop offset="100%" stop-color="#6366f1" />
    </linearGradient>
    <linearGradient id="g109b" x1="50%" y1="0%" x2="50%" y2="100%">
      <stop offset="0%" stop-color="#6366f1" />
      <stop offset="100%" stop-color="#8b5cf6" />
    </linearGradient>
    <linearGradient id="g109c" x1="50%" y1="0%" x2="50%" y2="100%">
      <stop offset="0%" stop-color="#8b5cf6" />
      <stop offset="100%" stop-color="#ec4899" />
    </linearGradient>
  </defs>
  <rect x="4" y="4" width="120" height="120" rx="28" fill="#0f172a" />
  <!-- Thin bright edge lines on each layer -->
  <polygon points="64,18 104,48 64,58 24,48" fill="url(#g109a)" />
  <polyline points="24,48 64,18 104,48" fill="none" stroke="#93c5fd" stroke-width="1" opacity="0.5" />
  <polygon points="64,38 104,68 64,78 24,68" fill="url(#g109b)" opacity="0.85" />
  <polyline points="24,68 64,38 104,68" fill="none" stroke="#a5b4fc" stroke-width="1" opacity="0.4" />
  <polygon points="64,58 104,88 64,98 24,88" fill="url(#g109c)" opacity="0.7" />
  <polyline points="24,88 64,58 104,88" fill="none" stroke="#f0abfc" stroke-width="1" opacity="0.35" />
  <!-- Top highlight -->
  <polygon points="64,18 104,48 64,58" fill="white" opacity="0.08" />
</svg>
