<svg width="128" height="128" viewBox="0 0 128 128" xmlns="http://www.w3.org/2000/svg">
  <defs>
    <linearGradient id="g112top" x1="0%" y1="0%" x2="100%" y2="100%">
      <stop offset="0%" stop-color="#60a5fa" />
      <stop offset="100%" stop-color="#a78bfa" />
    </linearGradient>
    <linearGradient id="g112left" x1="50%" y1="0%" x2="50%" y2="100%">
      <stop offset="0%" stop-color="#6366f1" />
      <stop offset="100%" stop-color="#7c3aed" />
    </linearGradient>
    <linearGradient id="g112right" x1="50%" y1="0%" x2="50%" y2="100%">
      <stop offset="0%" stop-color="#8b5cf6" />
      <stop offset="100%" stop-color="#ec4899" />
    </linearGradient>
    <radialGradient id="g112glow" cx="50%" cy="50%" r="50%">
      <stop offset="0%" stop-color="#818cf8" stop-opacity="0.3" />
      <stop offset="100%" stop-color="#818cf8" stop-opacity="0" />
    </radialGradient>
  </defs>
  <rect x="4" y="4" width="120" height="120" rx="28" fill="#0f172a" />
  <!-- Ambient glow behind cube -->
  <ellipse cx="64" cy="64" rx="44" ry="36" fill="url(#g112glow)" />
  <!-- Cube faces -->
  <polygon points="64,24 104,44 64,64 24,44" fill="url(#g112top)" />
  <polygon points="24,44 64,64 64,104 24,84" fill="url(#g112left)" />
  <polygon points="104,44 64,64 64,104 104,84" fill="url(#g112right)" />
  <!-- Top highlight -->
  <polygon points="64,24 104,44 64,64" fill="white" opacity="0.12" />
  <!-- Edge glow lines -->
  <polyline points="24,44 64,24 104,44" fill="none" stroke="#93c5fd" stroke-width="0.8" opacity="0.4" />
</svg>
