<svg width="128" height="128" viewBox="0 0 128 128" xmlns="http://www.w3.org/2000/svg">
  <defs>
    <linearGradient id="g113top" x1="0%" y1="0%" x2="100%" y2="100%">
      <stop offset="0%" stop-color="#60a5fa" />
      <stop offset="100%" stop-color="#a78bfa" />
    </linearGradient>
    <linearGradient id="g113left" x1="50%" y1="0%" x2="50%" y2="100%">
      <stop offset="0%" stop-color="#6366f1" />
      <stop offset="100%" stop-color="#7c3aed" />
    </linearGradient>
    <linearGradient id="g113right" x1="50%" y1="0%" x2="50%" y2="100%">
      <stop offset="0%" stop-color="#8b5cf6" />
      <stop offset="100%" stop-color="#ec4899" />
    </linearGradient>
  </defs>
  <rect x="4" y="4" width="120" height="120" rx="28" fill="#0f172a" />
  <!-- Glass cube - translucent faces -->
  <polygon points="64,24 104,44 64,64 24,44" fill="url(#g113top)" opacity="0.85" />
  <polygon points="24,44 64,64 64,104 24,84" fill="url(#g113left)" opacity="0.6" />
  <polygon points="104,44 64,64 64,104 104,84" fill="url(#g113right)" opacity="0.5" />
  <!-- Glass reflection on top face -->
  <polygon points="64,24 84,34 64,44 44,34" fill="white" opacity="0.18" />
  <!-- Edge bright lines for glass feel -->
  <polyline points="24,44 64,24 104,44" fill="none" stroke="white" stroke-width="0.7" opacity="0.25" />
  <polyline points="64,24 64,64" fill="none" stroke="white" stroke-width="0.5" opacity="0.15" />
  <polyline points="24,44 24,84" fill="none" stroke="white" stroke-width="0.5" opacity="0.1" />
</svg>
