<svg width="128" height="128" viewBox="0 0 128 128" xmlns="http://www.w3.org/2000/svg">
  <defs>
    <linearGradient id="g92" x1="0%" y1="0%" x2="100%" y2="100%">
      <stop offset="0%" stop-color="#3b82f6" />
      <stop offset="100%" stop-color="#8b5cf6" />
    </linearGradient>
  </defs>
  <rect x="4" y="4" width="120" height="120" rx="28" fill="#0f172a" />
  <!-- Prism with curved rainbow-arc spectrum -->
  <polygon points="44,28 68,88 20,88" fill="url(#g92)" opacity="0.4" />
  <polygon points="44,28 68,88 20,88" fill="none" stroke="#818cf8" stroke-width="2" stroke-linejoin="round" />
  <!-- Rainbow arc emerging -->
  <path d="M60,48 Q90,20 112,28" stroke="#3b82f6" stroke-width="3" fill="none" stroke-linecap="round" />
  <path d="M62,56 Q90,32 112,42" stroke="#6366f1" stroke-width="3" fill="none" stroke-linecap="round" />
  <path d="M64,64 Q90,46 112,56" stroke="#8b5cf6" stroke-width="3" fill="none" stroke-linecap="round" />
  <path d="M64,72 Q88,60 112,70" stroke="#a855f7" stroke-width="3" fill="none" stroke-linecap="round" />
  <path d="M62,78 Q86,74 112,84" stroke="#d946ef" stroke-width="3" fill="none" stroke-linecap="round" />
  <path d="M60,84 Q84,86 112,98" stroke="#ec4899" stroke-width="3" fill="none" stroke-linecap="round" />
  <!-- Input -->
  <line x1="14" y1="58" x2="32" y2="58" stroke="white" stroke-width="2" stroke-linecap="round" opacity="0.5" />
</svg>
