<svg width="128" height="128" viewBox="0 0 128 128" xmlns="http://www.w3.org/2000/svg">
  <defs>
    <linearGradient id="g97a" x1="50%" y1="0%" x2="50%" y2="100%">
      <stop offset="0%" stop-color="#3b82f6" />
      <stop offset="100%" stop-color="#6366f1" />
    </linearGradient>
    <linearGradient id="g97b" x1="50%" y1="0%" x2="50%" y2="100%">
      <stop offset="0%" stop-color="#6366f1" />
      <stop offset="100%" stop-color="#8b5cf6" />
    </linearGradient>
    <linearGradient id="g97c" x1="50%" y1="0%" x2="50%" y2="100%">
      <stop offset="0%" stop-color="#8b5cf6" />
      <stop offset="100%" stop-color="#ec4899" />
    </linearGradient>
  </defs>
  <rect x="4" y="4" width="120" height="120" rx="28" fill="#0f172a" />
  <!-- Glow effect between layers -->
  <ellipse cx="64" cy="56" rx="36" ry="20" fill="#6366f1" opacity="0.1" />
  <polygon points="64,18 104,48 64,58 24,48" fill="url(#g97a)" />
  <!-- Glow gap -->
  <line x1="28" y1="58" x2="100" y2="58" stroke="#818cf8" stroke-width="1" opacity="0.3" />
  <polygon points="64,38 104,68 64,78 24,68" fill="url(#g97b)" opacity="0.85" />
  <line x1="28" y1="78" x2="100" y2="78" stroke="#a855f7" stroke-width="1" opacity="0.3" />
  <polygon points="64,58 104,88 64,98 24,88" fill="url(#g97c)" opacity="0.7" />
  <!-- Top highlight -->
  <polygon points="64,18 104,48 64,58" fill="white" opacity="0.1" />
  <!-- Center glow dot -->
  <circle cx="64" cy="58" r="3" fill="white" opacity="0.2" />
</svg>
