<svg width="128" height="128" viewBox="0 0 128 128" xmlns="http://www.w3.org/2000/svg" role="img" aria-label="EdgeBase Icon">
  <defs>
    <linearGradient id="ebTopL" x1="0%" y1="0%" x2="100%" y2="100%">
      <stop offset="0%" stop-color="#60a5fa" />
      <stop offset="100%" stop-color="#818cf8" />
    </linearGradient>
    <linearGradient id="ebTopR" x1="100%" y1="0%" x2="0%" y2="100%">
      <stop offset="0%" stop-color="#a78bfa" />
      <stop offset="100%" stop-color="#c084fc" />
    </linearGradient>
    <linearGradient id="ebLeft" x1="50%" y1="0%" x2="50%" y2="100%">
      <stop offset="0%" stop-color="#4f46e5" />
      <stop offset="100%" stop-color="#7c3aed" />
    </linearGradient>
    <linearGradient id="ebRight" x1="50%" y1="0%" x2="50%" y2="100%">
      <stop offset="0%" stop-color="#a855f7" />
      <stop offset="100%" stop-color="#db2777" />
    </linearGradient>
  </defs>
  <polygon points="64,24 104,44 64,64" fill="url(#ebTopR)" />
  <polygon points="64,24 24,44 64,64" fill="url(#ebTopL)" />
  <polygon points="24,44 64,64 64,104 24,84" fill="url(#ebLeft)" />
  <polygon points="104,44 64,64 64,104 104,84" fill="url(#ebRight)" />
  <polygon points="64,24 84,34 64,38" fill="white" opacity="0.2" />
  <polyline points="24,44 64,24 104,44" fill="none" stroke="#93c5fd" stroke-width="0.8" opacity="0.3" />
  <line x1="64" y1="24" x2="64" y2="64" stroke="white" stroke-width="0.6" opacity="0.15" />
</svg>
